# xmcd CD database file
#
# Track frame offsets:
#	150
#	21227
#	35748
#	56825
#	76477
#	84976
#	95424
#	107177
#	118509
#	136723
#
# Disc length: 1946 seconds
#
# Revision: 0
# Processed by: cddbd v1.5.2PL0 Copyright (c) Steve Scherf et al.
# Submitted via: CDex 1.70beta2
#
DISCID=7d07980a
DTITLE=Buddy Wachter - Banjo Special
DYEAR=1982
DGENRE=Jazz
TTITLE0=Oklahoma Medley
TTITLE1=Dance of The Comedians - Tarantella
TTITLE2=Liebestraum
TTITLE3=Images of the South
TTITLE4=Tiger Rag
TTITLE5=Charleston Medley
TTITLE6=Ragtime Medley
TTITLE7=Waiting for The Robert E. Lee - Down Yonder
TTITLE8=Puszta Impressionen
TTITLE9=All the things you are
EXTD=YEAR: 1982
EXTT0=
EXTT1=
EXTT2=
EXTT3=
EXTT4=
EXTT5=
EXTT6=
EXTT7=
EXTT8=
EXTT9=
PLAYORDER=
